#define layout-full_width 16
#define layout-full_height 22
static char layout-full_bits[] = {
  0x00, 0x00,
  0x00, 0x00,
  0x00, 0x00,
  0xFF, 0xFF,
  0xFF, 0xFF,
  0x03, 0xC0,
  0x03, 0xC0,
  0x03, 0xC0,
  0x03, 0xC0,
  0x03, 0xC0,
  0x03, 0xC0,
  0x03, 0xC0,
  0x03, 0xC0,
  0x03, 0xC0,
  0x03, 0xC0,
  0x03, 0xC0,
  0x03, 0xC0,
  0xFF, 0xFF,
  0xFF, 0xFF,
  0x00, 0x00,
  0x00, 0x00,
  0x00, 0x00,};
