#define layout-monadwide_width 16
#define layout-monadwide_height 22
static char layout-monadwide_bits[] = {
  0x00, 0x00,
  0x00, 0x00,
  0x00, 0x00,
  0xFF, 0xFF,
  0x01, 0x80,
  0x01, 0x80,
  0x01, 0x80,
  0x01, 0x80,
  0x01, 0x80,
  0x01, 0x80,
  0xFF, 0xFF,
  0xFF, 0xFF,
  0x81, 0x81,
  0x81, 0x81,
  0x81, 0x81,
  0x81, 0x81,
  0x81, 0x81,
  0x81, 0x81,
  0xFF, 0xFF,
  0x00, 0x00,
  0x00, 0x00,
  0x00, 0x00,};
