#define layout-monadtall1_width 16
#define layout-monadtall1_height 22
static char layout-monadtall1_bits[] = {
  0x00, 0x00,
  0x00, 0x00,
  0x00, 0x00,
  0xFF, 0xFF,
  0xFF, 0xFF,
  0x83, 0xC1,
  0x83, 0xC1,
  0x83, 0xC1,
  0x83, 0xC1,
  0x83, 0xC1,
  0x83, 0xFF,
  0x83, 0xFF,
  0x83, 0xC1,
  0x83, 0xC1,
  0x83, 0xC1,
  0x83, 0xC1,
  0x83, 0xC1,
  0xFF, 0xFF,
  0xFF, 0xFF,
  0x00, 0x00,
  0x00, 0x00,
  0x00, 0x00,};
