#define layout-monadwide_width 16
#define layout-monadwide_height 22
static char layout-monadwide_bits[] = {
  0x00, 0x00,
  0x00, 0x00,
  0x00, 0x00,
  0xFF, 0xFF,
  0xFF, 0xFF,
  0x03, 0xC0,
  0x03, 0xC0,
  0x03, 0xC0,
  0x03, 0xC0,
  0x03, 0xC0,
  0xFF, 0xFF,
  0xFF, 0xFF,
  0x83, 0xC1,
  0x83, 0xC1,
  0x83, 0xC1,
  0x83, 0xC1,
  0x83, 0xC1,
  0xFF, 0xFF,
  0xFF, 0xFF,
  0x00, 0x00,
  0x00, 0x00,
  0x00, 0x00,};
